<svg id="visual" viewBox="0 0 1920 1080" width="1920" height="1080" xmlns="http://www.w3.org/2000/svg" xmlns:xlink="http://www.w3.org/1999/xlink" version="1.1"><path d="M0 722L274 759L549 715L823 688L1097 736L1371 719L1646 695L1920 679L1920 1081L1646 1081L1371 1081L1097 1081L823 1081L549 1081L274 1081L0 1081Z" fill="#4b6bfb"></path><path d="M0 792L274 836L549 847L823 792L1097 861L1371 851L1646 802L1920 815L1920 1081L1646 1081L1371 1081L1097 1081L823 1081L549 1081L274 1081L0 1081Z" fill="#3751d4"></path><path d="M0 938L274 913L549 956L823 964L1097 926L1371 912L1646 914L1920 972L1920 1081L1646 1081L1371 1081L1097 1081L823 1081L549 1081L274 1081L0 1081Z" fill="#1f39af"></path></svg>